<?xml version="1.0" encoding="UTF-8"?>
<svg width="24" height="24" viewBox="0 0 24 24" fill="none" xmlns="http://www.w3.org/2000/svg">
<path fill-rule="evenodd" clip-rule="evenodd" d="M16.7194 14.6333C16.4715 14.3595 16.1193 14.2034 15.7499 14.2034C15.3805 14.2034 15.0284 14.3595 14.7804 14.6333L14.1534 15.3333C13.783 15.743 13.1949 15.8753 12.6847 15.6639C12.1745 15.4524 11.8525 14.9429 11.8804 14.3913L11.9274 13.4573C11.9482 13.0877 11.8105 12.7268 11.5487 12.465C11.287 12.2033 10.926 12.0655 10.5564 12.0863L9.62242 12.1333C9.07049 12.162 8.56033 11.8399 8.34893 11.3293C8.13752 10.8186 8.27072 10.2302 8.68142 9.86034L9.37542 9.23334C9.64978 8.98571 9.80637 8.63342 9.80637 8.26384C9.80637 7.89425 9.64978 7.54197 9.37542 7.29434L8.68142 6.66734C8.27072 6.2975 8.13752 5.70906 8.34893 5.19841C8.56033 4.68776 9.07049 4.36565 9.62242 4.39434L10.5564 4.44134C10.9256 4.46053 11.2856 4.32226 11.547 4.06087C11.8083 3.79948 11.9466 3.4395 11.9274 3.07034L11.8804 2.13634C11.8525 1.58476 12.1745 1.07525 12.6847 0.863807C13.1949 0.652364 13.783 0.784706 14.1534 1.19434L14.7804 1.89434C15.0284 2.16813 15.3805 2.32431 15.7499 2.32431C16.1193 2.32431 16.4715 2.16813 16.7194 1.89434L17.3464 1.19434C17.7168 0.784706 18.3049 0.652364 18.8151 0.863807C19.3253 1.07525 19.6473 1.58476 19.6194 2.13634L19.5724 3.07034C19.5539 3.43933 19.6923 3.79893 19.9536 4.06017C20.2148 4.32142 20.5744 4.45989 20.9434 4.44134L21.8774 4.39434C22.429 4.36641 22.9385 4.68846 23.15 5.19866C23.3614 5.70886 23.2291 6.29691 22.8194 6.66734L22.1244 7.29434C21.8506 7.54229 21.6944 7.89445 21.6944 8.26384C21.6944 8.63322 21.8506 8.98538 22.1244 9.23334L22.8194 9.86034C23.2291 10.2308 23.3614 10.8188 23.15 11.329C22.9385 11.8392 22.429 12.1613 21.8774 12.1333L20.9434 12.0863C20.5743 12.0671 20.2143 12.2054 19.9529 12.4668C19.6915 12.7282 19.5532 13.0882 19.5724 13.4573L19.6194 14.3913C19.6473 14.9429 19.3253 15.4524 18.8151 15.6639C18.3049 15.8753 17.7168 15.743 17.3464 15.3333L16.7194 14.6333Z" stroke="#001968" stroke-width="1.5" stroke-linecap="round" stroke-linejoin="round"/>
<path fill-rule="evenodd" clip-rule="evenodd" d="M15.7505 6.3833C14.715 6.3833 13.8755 7.22277 13.8755 8.2583C13.8755 9.29383 14.715 10.1333 15.7505 10.1333C16.786 10.1333 17.6255 9.29383 17.6255 8.2583C17.6255 7.22277 16.786 6.3833 15.7505 6.3833Z" stroke="#F78F1E" stroke-width="1.5" stroke-linecap="round" stroke-linejoin="round"/>
<path d="M5.3623 19.0093C5.56941 19.0093 5.7373 18.8414 5.7373 18.6343C5.7373 18.4272 5.56941 18.2593 5.3623 18.2593C5.1552 18.2593 4.9873 18.4272 4.9873 18.6343C4.9873 18.8414 5.1552 19.0093 5.3623 19.0093V19.0093" stroke="#F78F1E" stroke-width="1.5" stroke-linecap="round" stroke-linejoin="round"/>
<path fill-rule="evenodd" clip-rule="evenodd" d="M2.80636 22.1613C2.52912 22.2692 2.2143 22.2031 2.00393 21.9927C1.79356 21.7824 1.72743 21.4675 1.83536 21.1903L2.33536 19.9043C2.4541 19.5996 2.36139 19.253 2.10636 19.0483L1.03136 18.1843C0.79956 17.9982 0.699573 17.6927 0.776454 17.4055C0.853335 17.1184 1.09257 16.9037 1.38636 16.8583L2.74936 16.6473C3.0726 16.5979 3.32642 16.3445 3.37636 16.0213L3.58736 14.6573C3.63278 14.3635 3.84743 14.1243 4.1346 14.0474C4.42176 13.9705 4.72723 14.0705 4.91336 14.3023L5.77736 15.3773C5.98221 15.6321 6.32838 15.7252 6.63336 15.6073L7.91936 15.1073C8.1966 14.9994 8.51142 15.0655 8.72179 15.2759C8.93216 15.4862 8.9983 15.8011 8.89036 16.0783L8.39036 17.3643C8.27163 17.669 8.36433 18.0156 8.61936 18.2203L9.69436 19.0853C9.92571 19.2713 10.0254 19.5763 9.94854 19.8631C9.87166 20.1498 9.63272 20.364 9.33936 20.4093L7.97636 20.6203C7.65311 20.6705 7.3995 20.9241 7.34936 21.2473L7.13836 22.6093C7.09342 22.9032 6.87895 23.1426 6.59181 23.2196C6.30466 23.2965 5.9992 23.1963 5.81336 22.9643L4.94836 21.8893C4.74344 21.6346 4.39711 21.5419 4.09236 21.6603L2.80636 22.1613Z" stroke="#001968" stroke-width="1.5" stroke-linecap="round" stroke-linejoin="round"/>
</svg>

