<?xml version="1.0" encoding="UTF-8"?>
<svg width="24" height="24" viewBox="0 0 24 24" fill="none" xmlns="http://www.w3.org/2000/svg">
<path fill-rule="evenodd" clip-rule="evenodd" d="M21.3518 1.00083C22.2312 0.97335 22.9683 1.62917 23 2.46739L23 21.5326C22.9683 22.3708 22.2312 23.0266 21.3518 22.9992L4.64821 22.9992C3.76878 23.0266 3.03174 22.3708 3 21.5326L3 2.46739C3.03174 1.62917 3.76878 0.973351 4.6482 1.00083L21.3518 1.00083Z" stroke="#001968" stroke-width="1.5" stroke-linecap="round" stroke-linejoin="round"/>
<path d="M1 18.75L4.25 18.75" stroke="#001968" stroke-width="1.5" stroke-linecap="round" stroke-linejoin="round"/>
<path d="M1 14.25L4.25 14.25" stroke="#001968" stroke-width="1.5" stroke-linecap="round" stroke-linejoin="round"/>
<path d="M1 9.75L4.25 9.75" stroke="#001968" stroke-width="1.5" stroke-linecap="round" stroke-linejoin="round"/>
<path d="M1 5.25L4.25002 5.25" stroke="#001968" stroke-width="1.5" stroke-linecap="round" stroke-linejoin="round"/>
<path fill-rule="evenodd" clip-rule="evenodd" d="M9 17.5C9 15.0147 11.0147 13 13.5 13C15.9853 13 18 15.0147 18 17.5H9Z" stroke="#F78F1E" stroke-width="1.5" stroke-linecap="round" stroke-linejoin="round"/>
<path fill-rule="evenodd" clip-rule="evenodd" d="M13.5 13C15.1569 13 16.5 11.6569 16.5 10C16.5 8.34315 15.1569 7 13.5 7C11.8431 7 10.5 8.34315 10.5 10C10.5 11.6569 11.8431 13 13.5 13Z" stroke="#F78F1E" stroke-width="1.5" stroke-linecap="round" stroke-linejoin="round"/>
</svg>


