<?xml version="1.0" encoding="UTF-8"?>
<svg width="155" height="170" viewBox="0 0 155 170" fill="none" xmlns="http://www.w3.org/2000/svg">
<rect x="0.5" y="0.5" width="154" height="154" rx="9.5" fill="white" stroke="#E1E3E5"/>
<path d="M21 92.8872L21.859 90.9814C22.7807 91.653 24.1553 92.1217 25.4675 92.1217C26.9669 92.1217 27.5761 91.6218 27.5761 90.9502C27.5761 88.904 21.2186 90.3098 21.2186 86.2485C21.2186 84.3897 22.7182 82.8433 25.8266 82.8433C27.2011 82.8433 28.6069 83.1714 29.6223 83.8118L28.8412 85.7331C27.8259 85.1552 26.7794 84.874 25.8109 84.874C24.3115 84.874 23.7335 85.4362 23.7335 86.1236C23.7335 88.1386 30.091 86.7484 30.091 90.7627C30.091 92.5903 28.5757 94.1523 25.4516 94.1523C23.7179 94.1523 21.9685 93.6368 21 92.8872Z" fill="#3FA9F5"/>
<path d="M39.894 91.9319V93.9624H31.4277V83.0283H39.691V85.0589H33.9427V87.4331H39.0191V89.4014H33.9427V91.9319H39.894Z" fill="#3FA9F5"/>
<path d="M41.5264 83.0283H44.0569V91.9007H49.5397V93.9624H41.5264V83.0283Z" fill="#3FA9F5"/>
<path d="M53.1126 85.0589V87.9488H58.1735V89.9794H53.1126V93.9624H50.582V83.0283H58.8453V85.0589H53.1126Z" fill="#3FA9F5"/>
<path d="M63.3145 92.8872L64.1735 90.9814C65.0951 91.653 66.4698 92.1217 67.782 92.1217C69.2814 92.1217 69.8905 91.6218 69.8905 90.9502C69.8905 88.904 63.5331 90.3098 63.5331 86.2485C63.5331 84.3897 65.0328 82.8433 68.141 82.8433C69.5157 82.8433 70.9215 83.1714 71.9368 83.8118L71.1557 85.7331C70.1404 85.1552 69.094 84.874 68.1255 84.874C66.6261 84.874 66.0481 85.4362 66.0481 86.1236C66.0481 88.1386 72.4055 86.7484 72.4055 90.7627C72.4055 92.5903 70.8903 94.1523 67.7662 94.1523C66.0324 94.1523 64.2829 93.6368 63.3145 92.8872Z" fill="#3FA9F5"/>
<path d="M82.2084 91.9319V93.9624H73.7422V83.0283H82.0054V85.0589H76.2572V87.4331H81.3336V89.4014H76.2572V91.9319H82.2084Z" fill="#3FA9F5"/>
<path d="M88.4331 85.0903H86.3713V88.9016H88.4331C89.9797 88.9016 90.7606 88.183 90.7606 86.9959C90.7606 85.7931 89.9797 85.0903 88.4331 85.0903ZM90.8074 93.9624L88.6988 90.9166H86.3713V93.9624H83.8408V83.0283H88.5738C91.4948 83.0283 93.3224 84.5435 93.3224 86.9959C93.3224 88.6359 92.4945 89.8387 91.0731 90.4479L93.5254 93.9624H90.8074Z" fill="#3FA9F5"/>
<path d="M105.449 83.0283L100.717 93.9624H98.2174L93.5 83.0283H96.2336L99.5609 90.8384L102.935 83.0283H105.449Z" fill="#3FA9F5"/>
<path d="M108.49 83.0283H105.959V93.9624H108.49V83.0283Z" fill="#3FA9F5"/>
<path d="M110.02 88.4979C110.02 85.202 112.55 82.8433 115.956 82.8433C117.846 82.8433 119.423 83.5307 120.455 84.7802L118.829 86.2799C118.096 85.4362 117.174 84.9989 116.081 84.9989C114.034 84.9989 112.582 86.4359 112.582 88.4979C112.582 90.5598 114.034 91.9967 116.081 91.9967C117.174 91.9967 118.096 91.5594 118.829 90.7003L120.455 92.1998C119.423 93.4649 117.846 94.1523 115.94 94.1523C112.55 94.1523 110.02 91.7936 110.02 88.4979Z" fill="#3FA9F5"/>
<path d="M130.231 91.9319V93.9624H121.765V83.0283H130.028V85.0589H124.28V87.4331H129.356V89.4014H124.28V91.9319H130.231Z" fill="#3FA9F5"/>
<path d="M37.0921 78.9356L37.0672 68.5424L31.9698 77.1044H30.1633L25.0904 68.7653V78.9356H21.3291V61.6138H24.645L31.1283 72.3782L37.5127 61.6138H40.8038L40.8533 78.9356H37.0921Z" fill="#001968"/>
<path d="M57.0791 75.7186V78.9356H43.667V61.6138H56.7574V64.8308H47.6511V68.592H55.6932V71.7098H47.6511V75.7186H57.0791Z" fill="#001968"/>
<path d="M89.4575 72.18L86.7106 65.5482L83.9639 72.18H89.4575ZM90.7195 75.2237H82.6771L81.1429 78.9356H77.0352L84.7558 61.6138H88.715L96.4604 78.9356H92.2537L90.7195 75.2237Z" fill="#001968"/>
<path d="M67.0402 70.4336L73.5996 69.3766C73.6908 70.0038 73.6813 70.6373 73.5713 71.2614C73.2953 72.8262 72.4266 74.1901 71.125 75.1014C69.8234 76.0128 68.2447 76.3627 66.6799 76.0868C63.4496 75.5172 61.285 72.4257 61.8546 69.1954C62.4208 65.9836 65.4972 63.8166 68.7123 64.3651L68.7572 64.3728L72.0346 62.0779L71.8698 61.9945C71.0598 61.5842 70.2003 61.2972 69.3153 61.1411C64.3045 60.2576 59.5091 63.6153 58.6255 68.6262C57.742 73.6368 61.0998 78.4323 66.1106 79.3159C68.5378 79.7438 70.9866 79.201 73.0056 77.7873C75.0247 76.3735 76.3723 74.2582 76.8003 71.8308C77.2339 69.372 76.6725 66.8991 75.2197 64.8655L75.1292 64.7408L67.0402 70.4336Z" fill="#001968"/>
<path d="M115.204 61.6138V78.9356H111.196V71.8336H103.326V78.9356H99.3174V61.6138H103.326V68.4436H111.196V61.6138H115.204Z" fill="#3FA9F5"/>
<path d="M125.308 64.8802H122.041V70.9181H125.308C127.758 70.9181 128.995 69.7798 128.995 67.8992C128.995 65.9937 127.758 64.8802 125.308 64.8802ZM129.069 78.9356L125.729 74.1103H122.041V78.9356H118.033V61.6138H125.531C130.158 61.6138 133.053 64.0141 133.053 67.8992C133.053 70.4974 131.742 72.4028 129.49 73.3679L133.375 78.9356H129.069Z" fill="#3FA9F5"/>
<rect x="63" y="140" width="30" height="30" rx="15" fill="#E1E3E5"/>
<path d="M78.4551 157.273V150" stroke="#001968" stroke-width="1.5" stroke-linecap="round" stroke-linejoin="round"/>
<path d="M81.1821 152.727L78.4548 150L75.7275 152.727" stroke="#001968" stroke-width="1.5" stroke-linecap="round" stroke-linejoin="round"/>
<path d="M85.2731 157.273V158.182C85.2731 159.186 84.4591 160 83.4549 160H73.4549C72.4507 160 71.6367 159.186 71.6367 158.182V157.273" stroke="#001968" stroke-width="1.5" stroke-linecap="round" stroke-linejoin="round"/>
</svg>
