<?xml version="1.0" encoding="UTF-8"?>
<svg width="24" height="24" viewBox="0 0 24 24" fill="none" xmlns="http://www.w3.org/2000/svg">
<path fill-rule="evenodd" clip-rule="evenodd" d="M8.49213 11.2649L7.43213 15.5079L11.6741 14.4469L18.0381 8.08288L14.8561 4.90088L8.49213 11.2649V11.2649Z" stroke="#F78F1E" stroke-width="1.5" stroke-linecap="round" stroke-linejoin="round"/>
<path d="M21.751 4.37085L22.811 5.43085C23.0925 5.71218 23.2507 6.09386 23.2507 6.49185C23.2507 6.88984 23.0925 7.27152 22.811 7.55285L19.5 10.8628" stroke="#F78F1E" stroke-width="1.5" stroke-linecap="round" stroke-linejoin="round"/>
<path d="M18.038 8.08294L21.751 4.37094C22.3365 3.78519 22.3365 2.83569 21.751 2.24994L20.69 1.18894C20.1042 0.603363 19.1547 0.603363 18.569 1.18894L14.856 4.89994" stroke="#F78F1E" stroke-width="1.5" stroke-linecap="round" stroke-linejoin="round"/>
<path d="M18.75 14.25V21.75C18.75 22.5784 18.0784 23.25 17.25 23.25H2.25C1.42157 23.25 0.75 22.5784 0.75 21.75V6.75C0.75 5.92157 1.42157 5.25 2.25 5.25H9.75" stroke="#001968" stroke-width="1.5" stroke-linecap="round" stroke-linejoin="round"/>
</svg>
