<?xml version="1.0" encoding="UTF-8"?>
<svg width="24" height="25" viewBox="0 0 24 25" fill="none" xmlns="http://www.w3.org/2000/svg">
<path d="M6.75 17.749L17.25 7.24902" stroke="#F78F1E" stroke-width="1.5" stroke-linecap="round" stroke-linejoin="round"/>
<path d="M7.73513 12.5211C6.46293 12.4478 5.21989 12.9207 4.31813 13.8211L2.06813 16.0711C0.931311 17.2079 0.487333 18.8649 0.903437 20.4178C1.31954 21.9707 2.53251 23.1837 4.08544 23.5998C5.63836 24.0159 7.29531 23.5719 8.43213 22.4351L10.6821 20.1851C11.5825 19.2833 12.0554 18.0403 11.9821 16.7681" stroke="#001968" stroke-width="1.5" stroke-linecap="round" stroke-linejoin="round"/>
<path d="M16.2652 12.476C17.5374 12.5492 18.7804 12.0763 19.6822 11.176L21.9322 8.92603C23.0691 7.78921 23.513 6.13226 23.0969 4.57933C22.6808 3.02641 21.4679 1.81344 19.9149 1.39733C18.362 0.981229 16.7051 1.42521 15.5682 2.56203L13.3182 4.81203C12.42 5.71486 11.949 6.95764 12.0232 8.22903" stroke="#001968" stroke-width="1.5" stroke-linecap="round" stroke-linejoin="round"/>
</svg>
