<?xml version="1.0" encoding="UTF-8"?>
<svg width="24" height="24" viewBox="0 0 24 24" fill="none" xmlns="http://www.w3.org/2000/svg">
<path fill-rule="evenodd" clip-rule="evenodd" d="M6.63333 10.3896C7.5354 10.3896 8.26667 11.1209 8.26667 12.0229C8.26667 12.925 7.5354 13.6562 6.63333 13.6562C5.73127 13.6562 5 12.925 5 12.0229C5 11.1209 5.73127 10.3896 6.63333 10.3896Z" fill="#001968"/>
<path fill-rule="evenodd" clip-rule="evenodd" d="M17.3666 10.3896C18.2687 10.3896 18.9999 11.1209 18.9999 12.0229C18.9999 12.925 18.2687 13.6562 17.3666 13.6562C16.4645 13.6562 15.7333 12.925 15.7333 12.0229C15.7333 11.1209 16.4645 10.3896 17.3666 10.3896Z" fill="#001968"/>
<path fill-rule="evenodd" clip-rule="evenodd" d="M12 10.3896C12.9021 10.3896 13.6334 11.1209 13.6334 12.0229C13.6334 12.925 12.9021 13.6562 12 13.6562C11.098 13.6562 10.3667 12.925 10.3667 12.0229C10.3667 11.1209 11.098 10.3896 12 10.3896Z" fill="#001968"/>
</svg>
