<?xml version="1.0" encoding="UTF-8"?>
<svg width="24" height="24" viewBox="0 0 24 24" fill="none" xmlns="http://www.w3.org/2000/svg">
<path d="M5.0508 9.68307L4.2698 7.25607C4.01616 6.46799 4.44896 5.62343 5.2368 5.36907L19.1428 0.890067C19.9312 0.636512 20.7759 1.06982 21.0298 1.85807L23.1098 8.31407C23.2319 8.6928 23.1985 9.10451 23.0169 9.4586C22.8354 9.81268 22.5206 10.0801 22.1418 10.2021L17.3168 11.7561" stroke="#001968" stroke-width="1.5" stroke-linecap="round" stroke-linejoin="round"/>
<path d="M17.3169 18.6831V21.2541C17.3153 21.7673 17.1099 22.2589 16.7459 22.6206C16.3819 22.9824 15.8891 23.1847 15.3759 23.1831H2.75789C2.2447 23.1847 1.75189 22.9824 1.38788 22.6206C1.02387 22.2589 0.818483 21.7673 0.816895 21.2541V11.6111C0.818483 11.098 1.02391 10.6066 1.38794 10.245C1.75198 9.88337 2.24479 9.68126 2.75789 9.68312H15.3759C15.889 9.68126 16.3818 9.88337 16.7458 10.245C17.1099 10.6066 17.3153 11.098 17.3169 11.6111V14.1831" stroke="#001968" stroke-width="1.5" stroke-linecap="round" stroke-linejoin="round"/>
<path d="M4.56689 9.698V23.183" stroke="#001968" stroke-width="1.5" stroke-linecap="round" stroke-linejoin="round"/>
<path fill-rule="evenodd" clip-rule="evenodd" d="M14.144 14.1831C12.9501 14.2329 12.0214 15.239 12.067 16.4331C12.0214 17.6272 12.9501 18.6333 14.144 18.6831H17.779C18.3757 18.6577 18.8396 18.1549 18.817 17.5581V15.3081C18.8402 14.7111 18.3759 14.208 17.779 14.1831H14.144Z" stroke="#F78F1E" stroke-width="1.5" stroke-linecap="round" stroke-linejoin="round"/>
<path d="M16.2251 15.96C16.4322 15.96 16.6001 16.1279 16.6001 16.335C16.6001 16.5421 16.4322 16.71 16.2251 16.71C16.018 16.71 15.8501 16.5421 15.8501 16.335C15.8501 16.1279 16.018 15.96 16.2251 15.96" stroke="#F78F1E" stroke-width="1.5" stroke-linecap="round" stroke-linejoin="round"/>
<path d="M12.229 7.50015C12.5084 6.94932 13.0969 6.62608 13.7117 6.68576C14.3264 6.74545 14.8418 7.17586 15.01 7.77014" stroke="#F78F1E" stroke-width="1.5" stroke-linecap="round" stroke-linejoin="round"/>
</svg>

