<?xml version="1.0" encoding="UTF-8"?>
<svg width="25" height="25" viewBox="0 0 25 25" fill="none" xmlns="http://www.w3.org/2000/svg">
<path fill-rule="evenodd" clip-rule="evenodd" d="M3.94313 22.9431C3.42227 23.464 2.57778 23.464 2.05691 22.9431C1.53604 22.4223 1.53604 21.5778 2.05691 21.0569L5.1618 17.9556L7.04446 19.8382L3.94313 22.9431Z" stroke="#001968" stroke-width="1.5" stroke-linecap="round" stroke-linejoin="round"/>
<path d="M8.33336 16.6667L6.10492 18.8952" stroke="#001968" stroke-width="1.5" stroke-linecap="round" stroke-linejoin="round"/>
<path fill-rule="evenodd" clip-rule="evenodd" d="M19.5677 13.4335C22.1108 10.8904 22.3815 7.0379 20.1723 4.82875C17.9632 2.6196 14.1107 2.89031 11.5676 5.43341C9.02454 7.9765 8.75382 11.829 10.963 14.0381C13.1721 16.2473 17.0246 15.9765 19.5677 13.4335Z" stroke="#001968" stroke-width="1.5" stroke-linecap="round" stroke-linejoin="round"/>
<path d="M9.59026 11.4773L8.33337 16.6666L13.5227 15.4097" stroke="#001968" stroke-width="1.5" stroke-linecap="round" stroke-linejoin="round"/>
<path d="M20.8738 11.6702L13.3298 4.12622" stroke="#001968" stroke-width="1.5" stroke-linecap="round" stroke-linejoin="round"/>
<path d="M10.2604 7.19556L17.8044 14.7396" stroke="#001968" stroke-width="1.5" stroke-linecap="round" stroke-linejoin="round"/>
<path d="M18.576 3.75732L9.8916 12.4418" stroke="#001968" stroke-width="1.5" stroke-linecap="round" stroke-linejoin="round"/>
<path d="M12.5582 15.1085L21.2427 6.42407" stroke="#001968" stroke-width="1.5" stroke-linecap="round" stroke-linejoin="round"/>
<path fill-rule="evenodd" clip-rule="evenodd" d="M4.33335 8.66683C5.80611 8.66683 7.00002 7.47292 7.00002 6.00016C7.00002 4.5274 5.80611 3.3335 4.33335 3.3335C2.86059 3.3335 1.66669 4.5274 1.66669 6.00016C1.66669 7.47292 2.86059 8.66683 4.33335 8.66683Z" stroke="#F78F1E" stroke-width="1.5" stroke-linecap="round" stroke-linejoin="round"/>
</svg>
