<?xml version="1.0" encoding="UTF-8"?>
<svg width="107" height="15" viewBox="0 0 107 15" fill="none" xmlns="http://www.w3.org/2000/svg">
<path d="M3.35255 0.306396H0V14.6472H3.35255V0.306396Z" fill="#F78F1F"/>
<path d="M15.0561 8.67721L8.23935 0.306396H5.55225V14.6472H8.88557V6.27636L15.7023 14.6472H18.3895V0.306396H15.0561V8.67721Z" fill="#F78F1F"/>
<path d="M20.0161 3.27341H24.4886V14.6472H27.8411V3.27341H32.3135V0.306396H20.0161V3.27341Z" fill="#F78F1F"/>
<path d="M37.3014 8.82543H43.8173V5.91626H37.3014V3.25419H44.6462V0.306396H33.9487V14.6473H44.9161V11.6996H37.3014V8.82543Z" fill="#F78F1F"/>
<path d="M49.625 0.306396H46.2725V14.6473H56.6806V11.6803H49.625V0.306396Z" fill="#F78F1F"/>
<path d="M61.6505 0.306396H58.2979V14.6473H68.7058V11.6803H61.6505V0.306396Z" fill="#F78F1F"/>
<path d="M73.6625 0.306396H70.3101V14.6473H73.6625V0.306396Z" fill="#F78F1F"/>
<path d="M103.015 7.47715C103.015 9.82895 101.102 11.7422 98.7502 11.7422C96.3988 11.7422 94.4852 9.82895 94.4852 7.47715C94.4852 5.12552 96.3988 3.21224 98.7502 3.21224C101.102 3.21224 103.015 5.12552 103.015 7.47715ZM98.7502 0C94.6276 0 91.2734 3.35419 91.2734 7.47715C91.2734 11.6001 94.6276 14.9543 98.7502 14.9543C102.873 14.9543 106.228 11.6001 106.228 7.47715C106.228 3.35419 102.873 0 98.7502 0Z" fill="#F78F1F"/>
<path d="M86.9584 6.77363C87.0439 7.3187 87.0152 7.88984 86.9572 8.21969C86.5487 10.5357 84.3321 12.0877 82.0165 11.6793C79.7002 11.2709 78.1483 9.05446 78.5568 6.73841C78.9166 4.69894 80.6884 3.24819 82.6899 3.21625L86.1285 0.808596L86.1255 0.80713C85.4697 0.474759 84.7728 0.242082 84.0555 0.115604C82.0886 -0.231302 80.1041 0.208558 78.4683 1.35413V1.35419C76.8325 2.49964 75.74 4.21389 75.3931 6.18063C74.6775 10.2409 77.3981 14.1267 81.4585 14.8426C83.4887 15.2007 85.475 14.6995 87.0433 13.6011C88.6117 12.5029 89.7628 10.8073 90.1203 8.77741C90.4632 6.83359 90.0336 4.86591 88.91 3.2367L88.668 2.88581L82.6641 7.08983L86.9584 6.77363Z" fill="#F78F1F"/>
</svg>
