<?xml version="1.0" encoding="UTF-8"?>
<svg width="24" height="24" viewBox="0 0 24 24" fill="none" xmlns="http://www.w3.org/2000/svg">
<path d="M14.0003 16.0001H13.3337C12.5973 16.0001 12.0003 15.4031 12.0003 14.6667V11.3334C12.0003 10.9652 11.7018 10.6667 11.3337 10.6667H10.667" stroke="#F78F1E" stroke-width="1.5" stroke-linecap="round" stroke-linejoin="round"/>
<path d="M11.6663 7.33325C11.4822 7.33325 11.333 7.48249 11.333 7.66659C11.333 7.85068 11.4822 7.99992 11.6663 7.99992C11.8504 7.99992 11.9997 7.85068 11.9997 7.66659C11.9997 7.48249 11.8504 7.33325 11.6663 7.33325V7.33325" stroke="#F78F1E" stroke-width="1.5" stroke-linecap="round" stroke-linejoin="round"/>
<path fill-rule="evenodd" clip-rule="evenodd" d="M12 22C17.5228 22 22 17.5228 22 12C22 6.47715 17.5228 2 12 2C6.47715 2 2 6.47715 2 12C2 17.5228 6.47715 22 12 22Z" stroke="#001968" stroke-width="1.5" stroke-linecap="round" stroke-linejoin="round"/>
</svg>
