<?xml version="1.0" encoding="UTF-8"?>
<svg width="120" height="36" viewBox="0 0 120 36" fill="none" xmlns="http://www.w3.org/2000/svg">
  <path d="M0 34.0509L0.917286 32.0158C1.90151 32.7329 3.3694 33.2335 4.77063 33.2335C6.37179 33.2335 7.02229 32.6996 7.02229 31.9824C7.02229 29.7975 0.233408 31.2987 0.233408 26.9617C0.233408 24.9768 1.83483 23.3254 5.15408 23.3254C6.62189 23.3254 8.12308 23.6759 9.20736 24.3596L8.37327 26.4114C7.28908 25.7942 6.17159 25.494 5.13739 25.494C3.53622 25.494 2.91902 26.0943 2.91902 26.8284C2.91902 28.9801 9.7079 27.4956 9.7079 31.7822C9.7079 33.7338 8.08979 35.4018 4.75368 35.4018C2.90233 35.4018 1.03421 34.8513 0 34.0509Z" fill="#3FA9F5"/>
  <path d="M20.176 33.0309V35.1992H11.1353V23.5232H19.9592V25.6916H13.8209V28.2269H19.2417V30.3287H13.8209V33.0309H20.176Z" fill="#3FA9F5"/>
  <path d="M21.9189 23.5232H24.6212V32.9976H30.476V35.1992H21.9189V23.5232Z" fill="#3FA9F5"/>
  <path d="M34.2912 25.6916V28.7775H39.6954V30.9459H34.2912V35.1992H31.5889V23.5232H40.4128V25.6916H34.2912Z" fill="#3FA9F5"/>
  <path d="M45.186 34.0509L46.1034 32.0158C47.0875 32.7329 48.5554 33.2335 49.9567 33.2335C51.5578 33.2335 52.2083 32.6996 52.2083 31.9824C52.2083 29.7975 45.4195 31.2987 45.4195 26.9617C45.4195 24.9768 47.021 23.3254 50.3401 23.3254C51.808 23.3254 53.3092 23.6759 54.3934 24.3596L53.5594 26.4114C52.4752 25.7942 51.3577 25.494 50.3235 25.494C48.7223 25.494 48.1051 26.0943 48.1051 26.8284C48.1051 28.9801 54.8939 27.4956 54.8939 31.7822C54.8939 33.7338 53.2759 35.4018 49.9398 35.4018C48.0885 35.4018 46.2202 34.8513 45.186 34.0509Z" fill="#3FA9F5"/>
  <path d="M65.362 33.0309V35.1992H56.3213V23.5232H65.1452V25.6916H59.0069V28.2269H64.4279V30.3287H59.0069V33.0309H65.362Z" fill="#3FA9F5"/>
  <path d="M72.0084 25.725H69.8067V29.795H72.0084C73.6599 29.795 74.4938 29.0276 74.4938 27.76C74.4938 26.4756 73.6599 25.725 72.0084 25.725ZM74.5438 35.1992L72.2921 31.9467H69.8067V35.1992H67.1045V23.5232H72.1586C75.2778 23.5232 77.2294 25.1412 77.2294 27.76C77.2294 29.5113 76.3453 30.7957 74.8275 31.4462L77.4462 35.1992H74.5438Z" fill="#3FA9F5"/>
  <path d="M90.1794 23.5232L85.1257 35.1992H82.4569L77.4194 23.5232H80.3385L83.8915 31.8632L87.4943 23.5232H90.1794Z" fill="#3FA9F5"/>
  <path d="M93.4254 23.5232H90.7231V35.1992H93.4254V23.5232Z" fill="#3FA9F5"/>
  <path d="M95.0601 29.3638C95.0601 25.8442 97.7624 23.3254 101.399 23.3254C103.417 23.3254 105.102 24.0596 106.203 25.3938L104.468 26.9953C103.684 26.0943 102.7 25.6273 101.532 25.6273C99.3471 25.6273 97.7959 27.1618 97.7959 29.3638C97.7959 31.5655 99.3471 33.1 101.532 33.1C102.7 33.1 103.684 32.633 104.468 31.7157L106.203 33.3168C105.102 34.6678 103.417 35.4018 101.383 35.4018C97.7624 35.4018 95.0601 32.8831 95.0601 29.3638Z" fill="#3FA9F5"/>
  <path d="M116.643 33.0309V35.1992H107.602V23.5232H116.426V25.6916H110.288V28.2269H115.708V30.3287H110.288V33.0309H116.643Z" fill="#3FA9F5"/>
  <path d="M17.1841 19.153L17.1575 8.05453L11.7142 17.1975H9.78519L4.36811 8.29258V19.153H0.351562V0.655762H3.89243L10.8157 12.1506L17.6333 0.655762H21.1477L21.2005 19.153H17.1841Z" fill="#F78F1E"/>
  <path d="M38.5267 15.7177V19.153H24.2046V0.655762H38.1832V4.09107H28.459V8.10753H37.0469V11.4368H28.459V15.7177H38.5267Z" fill="#F78F1E"/>
  <path d="M73.1026 11.9389L70.1694 4.85719L67.2363 11.9389H73.1026ZM74.4502 15.1892H65.8622L64.2239 19.153H59.8374L68.0819 0.655762H72.3098L80.5807 19.153H76.0886L74.4502 15.1892Z" fill="#F78F1E"/>
  <path d="M49.1646 10.0737L56.1692 8.94493C56.2665 9.61478 56.2564 10.2912 56.1389 10.9577C55.8442 12.6287 54.9166 14.0851 53.5266 15.0583C52.1367 16.0315 50.4509 16.4051 48.7799 16.1105C45.3305 15.5022 43.019 12.2009 43.6272 8.75153C44.2318 5.32173 47.5169 3.00769 50.9503 3.59341L50.9982 3.60167L54.4979 1.15101L54.322 1.06197C53.457 0.623884 52.5392 0.317348 51.5941 0.150702C46.2434 -0.792824 41.1226 2.79278 40.179 8.14361C39.2356 13.4943 42.8212 18.6151 48.172 19.5587C50.7639 20.0157 53.3789 19.436 55.5349 17.9264C57.691 16.4167 59.13 14.1578 59.587 11.5658C60.0501 8.94011 59.4506 6.29932 57.8992 4.12776L57.8025 3.99466L49.1646 10.0737Z" fill="#F78F1E"/>
  <path d="M100.596 0.655762V19.153H96.316V11.5691H87.9123V19.153H83.6318V0.655762H87.9123V7.94897H96.316V0.655762H100.596Z" fill="#3FA9F5"/>
  <path d="M111.386 4.14381H107.897V10.5914H111.386C114.001 10.5914 115.322 9.37591 115.322 7.36764C115.322 5.33287 114.001 4.14381 111.386 4.14381ZM115.402 19.153L111.835 14.0002H107.897V19.153H103.617V0.655762H111.623C116.565 0.655762 119.656 3.21895 119.656 7.36764C119.656 10.1422 118.256 12.1769 115.851 13.2074L120 19.153H115.402Z" fill="#3FA9F5"/>
  </svg>