<?xml version="1.0" encoding="UTF-8"?>
<svg width="113" height="34" viewBox="0 0 113 34" fill="none" xmlns="http://www.w3.org/2000/svg">
<path d="M0 31.8872L0.859 29.9814C1.78068 30.653 3.15531 31.1217 4.46749 31.1217C5.96692 31.1217 6.57608 30.6218 6.57608 29.9502C6.57608 27.904 0.218577 29.3098 0.218577 25.2485C0.218577 23.3897 1.71824 21.8433 4.82658 21.8433C6.20112 21.8433 7.60693 22.1714 8.62231 22.8118L7.84122 24.7331C6.82592 24.1552 5.77944 23.874 4.81095 23.874C3.31153 23.874 2.73354 24.4362 2.73354 25.1236C2.73354 27.1386 9.09104 25.7484 9.09104 29.7627C9.09104 31.5903 7.57575 33.1523 4.45162 33.1523C2.71791 33.1523 0.96849 32.6368 0 31.8872Z" fill="#3FA9F5"/>
<path d="M18.894 30.9319V32.9624H10.4277V22.0283H18.691V24.0589H12.9427V26.4331H18.0191V28.4014H12.9427V30.9319H18.894Z" fill="#3FA9F5"/>
<path d="M20.5264 22.0283H23.0569V30.9007H28.5397V32.9624H20.5264V22.0283Z" fill="#3FA9F5"/>
<path d="M32.1126 24.0589V26.9488H37.1735V28.9794H32.1126V32.9624H29.582V22.0283H37.8453V24.0589H32.1126Z" fill="#3FA9F5"/>
<path d="M42.3145 31.8872L43.1735 29.9814C44.0951 30.653 45.4698 31.1217 46.782 31.1217C48.2814 31.1217 48.8905 30.6218 48.8905 29.9502C48.8905 27.904 42.5331 29.3098 42.5331 25.2485C42.5331 23.3897 44.0328 21.8433 47.141 21.8433C48.5157 21.8433 49.9215 22.1714 50.9368 22.8118L50.1557 24.7331C49.1404 24.1552 48.094 23.874 47.1255 23.874C45.6261 23.874 45.0481 24.4362 45.0481 25.1236C45.0481 27.1386 51.4055 25.7484 51.4055 29.7627C51.4055 31.5903 49.8903 33.1523 46.7662 33.1523C45.0324 33.1523 43.2829 32.6368 42.3145 31.8872Z" fill="#3FA9F5"/>
<path d="M61.2084 30.9319V32.9624H52.7422V22.0283H61.0054V24.0589H55.2572V26.4331H60.3336V28.4014H55.2572V30.9319H61.2084Z" fill="#3FA9F5"/>
<path d="M67.4331 24.0903H65.3713V27.9016H67.4331C68.9797 27.9016 69.7606 27.183 69.7606 25.9959C69.7606 24.7931 68.9797 24.0903 67.4331 24.0903ZM69.8074 32.9624L67.6988 29.9166H65.3713V32.9624H62.8408V22.0283H67.5738C70.4948 22.0283 72.3224 23.5435 72.3224 25.9959C72.3224 27.6359 71.4945 28.8387 70.0731 29.4479L72.5254 32.9624H69.8074Z" fill="#3FA9F5"/>
<path d="M84.4491 22.0283L79.7166 32.9624H77.2174L72.5 22.0283H75.2336L78.5609 29.8384L81.9347 22.0283H84.4491Z" fill="#3FA9F5"/>
<path d="M87.4896 22.0283H84.959V32.9624H87.4896V22.0283Z" fill="#3FA9F5"/>
<path d="M89.0195 27.4979C89.0195 24.202 91.5501 21.8433 94.9557 21.8433C96.8458 21.8433 98.4233 22.5307 99.4545 23.7802L97.8295 25.2799C97.0955 24.4362 96.1738 23.9989 95.0805 23.9989C93.0342 23.9989 91.5815 25.4359 91.5815 27.4979C91.5815 29.5598 93.0342 30.9967 95.0805 30.9967C96.1738 30.9967 97.0955 30.5594 97.8295 29.7003L99.4545 31.1998C98.4233 32.4649 96.8458 33.1523 94.9404 33.1523C91.5501 33.1523 89.0195 30.7936 89.0195 27.4979Z" fill="#3FA9F5"/>
<path d="M109.231 30.9319V32.9624H100.765V22.0283H109.028V24.0589H103.28V26.4331H108.356V28.4014H103.28V30.9319H109.231Z" fill="#3FA9F5"/>
<path d="M16.0921 17.9356L16.0672 7.54241L10.9698 16.1044H9.1633L4.09043 7.76534V17.9356H0.329102V0.61377H3.64498L10.1283 11.3782L16.5127 0.61377H19.8038L19.8533 17.9356H16.0921Z" fill="#001968"/>
<path d="M36.0791 14.7186V17.9356H22.667V0.61377H35.7574V3.83079H26.6511V7.59204H34.6932V10.7098H26.6511V14.7186H36.0791Z" fill="#001968"/>
<path d="M68.4575 11.18L65.7106 4.54823L62.9639 11.18H68.4575ZM69.7195 14.2237H61.6771L60.1429 17.9356H56.0352L63.7558 0.61377H67.715L75.4604 17.9356H71.2537L69.7195 14.2237Z" fill="#001968"/>
<path d="M46.0402 9.43359L52.5996 8.37655C52.6908 9.00384 52.6813 9.63726 52.5713 10.2614C52.2953 11.8262 51.4266 13.1901 50.125 14.1014C48.8234 15.0128 47.2447 15.3627 45.6799 15.0868C42.4496 14.5172 40.285 11.4257 40.8546 8.19544C41.4208 4.98358 44.4972 2.81658 47.7123 3.36508L47.7572 3.37281L51.0346 1.07787L50.8698 0.994486C50.0598 0.584242 49.2003 0.297183 48.3153 0.141126C43.3045 -0.742447 38.5091 2.61532 37.6255 7.62616C36.742 12.6368 40.0998 17.4323 45.1106 18.3159C47.5378 18.7438 49.9866 18.201 52.0056 16.7873C54.0247 15.3735 55.3723 13.2582 55.8003 10.8308C56.2339 8.37204 55.6725 5.89905 54.2197 3.86547L54.1292 3.74084L46.0402 9.43359Z" fill="#001968"/>
<path d="M94.2037 0.61377V17.9356H90.1955V10.8336H82.3258V17.9356H78.3174V0.61377H82.3258V7.44355H90.1955V0.61377H94.2037Z" fill="#3FA9F5"/>
<path d="M104.308 3.88018H101.041V9.91807H104.308C106.758 9.91807 107.995 8.77983 107.995 6.89916C107.995 4.99369 106.758 3.88018 104.308 3.88018ZM108.069 17.9356L104.729 13.1103H101.041V17.9356H97.0332V0.61377H104.531C109.158 0.61377 112.053 3.01409 112.053 6.89916C112.053 9.49743 110.742 11.4028 108.49 12.3679L112.375 17.9356H108.069Z" fill="#3FA9F5"/>
</svg>
